<?xml version="1.0" encoding="UTF-8" standalone="no"?>
<!DOCTYPE svg PUBLIC "-//W3C//DTD SVG 1.1//EN"
 "http://www.w3.org/Graphics/SVG/1.1/DTD/svg11.dtd">
<!-- Generated by graphviz version 2.40.1 (20161225.0304)
 -->
<!-- Title: G Pages: 1 -->
<svg width="673pt" height="435pt"
 viewBox="0.00 0.00 672.80 435.00" xmlns="http://www.w3.org/2000/svg" xmlns:xlink="http://www.w3.org/1999/xlink">
<g id="graph0" class="graph" transform="scale(1 1) rotate(0) translate(4 431)">
<title>G</title>
<polygon fill="#ffffff" stroke="transparent" points="-4,4 -4,-431 668.7969,-431 668.7969,4 -4,4"/>
<g id="clust1" class="cluster">
<title>cluster_Global</title>
<path fill="none" stroke="#c0c0c0" d="M446.3711,-8C446.3711,-8 644.7969,-8 644.7969,-8 650.7969,-8 656.7969,-14 656.7969,-20 656.7969,-20 656.7969,-407 656.7969,-407 656.7969,-413 650.7969,-419 644.7969,-419 644.7969,-419 446.3711,-419 446.3711,-419 440.3711,-419 434.3711,-413 434.3711,-407 434.3711,-407 434.3711,-20 434.3711,-20 434.3711,-14 440.3711,-8 446.3711,-8"/>
<text text-anchor="middle" x="545.584" y="-406.2" font-family="Times,serif" font-size="11.00" fill="#c0c0c0">Global</text>
</g>
<g id="clust2" class="cluster">
<title>cluster_\jwvirtualassistant</title>
<path fill="none" stroke="#c0c0c0" d="M454.3711,-16C454.3711,-16 636.7969,-16 636.7969,-16 642.7969,-16 648.7969,-22 648.7969,-28 648.7969,-28 648.7969,-380 648.7969,-380 648.7969,-386 642.7969,-392 636.7969,-392 636.7969,-392 454.3711,-392 454.3711,-392 448.3711,-392 442.3711,-386 442.3711,-380 442.3711,-380 442.3711,-28 442.3711,-28 442.3711,-22 448.3711,-16 454.3711,-16"/>
<text text-anchor="middle" x="545.584" y="-379.2" font-family="Times,serif" font-size="11.00" fill="#c0c0c0">jwvirtualassistant</text>
</g>
<g id="clust3" class="cluster">
<title>cluster_\jwvirtualassistant\AccountManagement</title>
<path fill="none" stroke="#c0c0c0" d="M462.3711,-24C462.3711,-24 628.7969,-24 628.7969,-24 634.7969,-24 640.7969,-30 640.7969,-36 640.7969,-36 640.7969,-353 640.7969,-353 640.7969,-359 634.7969,-365 628.7969,-365 628.7969,-365 462.3711,-365 462.3711,-365 456.3711,-365 450.3711,-359 450.3711,-353 450.3711,-353 450.3711,-36 450.3711,-36 450.3711,-30 456.3711,-24 462.3711,-24"/>
<text text-anchor="middle" x="545.584" y="-352.2" font-family="Times,serif" font-size="11.00" fill="#c0c0c0">AccountManagement</text>
</g>
<!-- \\jwvirtualassistant\\AccountManagement\\Password -->
<g id="node1" class="node">
<title>\\jwvirtualassistant\\AccountManagement\\Password</title>
<polygon fill="none" stroke="#000000" points="579.8929,-338 511.2752,-338 511.2752,-302 579.8929,-302 579.8929,-338"/>
<text text-anchor="middle" x="545.584" y="-316.7" font-family="Courier,monospace" font-size="11.00" fill="#000000">Password</text>
</g>
<!-- \\jwvirtualassistant\\AccountManagement\\ValueType -->
<g id="node7" class="node">
<title>\\jwvirtualassistant\\AccountManagement\\ValueType</title>
<ellipse fill="none" stroke="#000000" cx="193.1856" cy="-266" rx="193.3713" ry="18"/>
<text text-anchor="middle" x="193.1856" y="-261.8" font-family="Times,serif" font-size="14.00" fill="#c0c0c0">\jwvirtualassistant\AccountManagement\ValueType</text>
</g>
<!-- \\jwvirtualassistant\\AccountManagement\\Password&#45;&gt;\\jwvirtualassistant\\AccountManagement\\ValueType -->
<g id="edge1" class="edge">
<title>\\jwvirtualassistant\\AccountManagement\\Password&#45;&gt;\\jwvirtualassistant\\AccountManagement\\ValueType</title>
<path fill="none" stroke="#000000" d="M511.153,-314.7239C463.5152,-307.4241 375.2915,-293.9051 303.839,-282.956"/>
<polygon fill="none" stroke="#000000" points="304.2888,-279.4842 293.874,-281.4291 303.2285,-286.4034 304.2888,-279.4842"/>
</g>
<!-- \\jwvirtualassistant\\AccountManagement\\Username -->
<g id="node2" class="node">
<title>\\jwvirtualassistant\\AccountManagement\\Username</title>
<polygon fill="none" stroke="#000000" points="579.8929,-284 511.2752,-284 511.2752,-248 579.8929,-248 579.8929,-284"/>
<text text-anchor="middle" x="545.584" y="-262.7" font-family="Courier,monospace" font-size="11.00" fill="#000000">Username</text>
</g>
<!-- \\jwvirtualassistant\\AccountManagement\\Username&#45;&gt;\\jwvirtualassistant\\AccountManagement\\ValueType -->
<g id="edge2" class="edge">
<title>\\jwvirtualassistant\\AccountManagement\\Username&#45;&gt;\\jwvirtualassistant\\AccountManagement\\ValueType</title>
<path fill="none" stroke="#000000" d="M511.153,-266C483.137,-266 441.0836,-266 396.6597,-266"/>
<polygon fill="none" stroke="#000000" points="396.5447,-262.5001 386.5447,-266 396.5447,-269.5001 396.5447,-262.5001"/>
</g>
<!-- \\jwvirtualassistant\\AccountManagement\\Account -->
<g id="node3" class="node">
<title>\\jwvirtualassistant\\AccountManagement\\Account</title>
<polygon fill="none" stroke="#000000" points="576.7919,-230 514.3762,-230 514.3762,-194 576.7919,-194 576.7919,-230"/>
<text text-anchor="middle" x="545.584" y="-208.7" font-family="Courier,monospace" font-size="11.00" fill="#000000">Account</text>
</g>
<!-- \\jwvirtualassistant\\AccountManagement\\IncompatibilityException -->
<g id="node4" class="node">
<title>\\jwvirtualassistant\\AccountManagement\\IncompatibilityException</title>
<polygon fill="none" stroke="#000000" points="633.0103,-68 458.1577,-68 458.1577,-32 633.0103,-32 633.0103,-68"/>
<text text-anchor="middle" x="545.584" y="-46.7" font-family="Courier,monospace" font-size="11.00" fill="#000000">IncompatibilityException</text>
</g>
<!-- \\Exception -->
<g id="node8" class="node">
<title>\\Exception</title>
<ellipse fill="none" stroke="#000000" cx="193.1856" cy="-77" rx="48.3341" ry="18"/>
<text text-anchor="middle" x="193.1856" y="-72.8" font-family="Times,serif" font-size="14.00" fill="#c0c0c0">\Exception</text>
</g>
<!-- \\jwvirtualassistant\\AccountManagement\\IncompatibilityException&#45;&gt;\\Exception -->
<g id="edge3" class="edge">
<title>\\jwvirtualassistant\\AccountManagement\\IncompatibilityException&#45;&gt;\\Exception</title>
<path fill="none" stroke="#000000" d="M458.0215,-56.7088C393.3517,-61.6637 307.1419,-68.2689 250.9159,-72.5768"/>
<polygon fill="none" stroke="#000000" points="250.4815,-69.0998 240.7781,-73.3536 251.0163,-76.0793 250.4815,-69.0998"/>
</g>
<!-- \\jwvirtualassistant\\AccountManagement\\UniqueUsername -->
<g id="node5" class="node">
<title>\\jwvirtualassistant\\AccountManagement\\UniqueUsername</title>
<polygon fill="none" stroke="#000000" points="599.9999,-176 491.1682,-176 491.1682,-140 599.9999,-140 599.9999,-176"/>
<text text-anchor="middle" x="545.584" y="-154.7" font-family="Courier,monospace" font-size="11.00" fill="#000000">UniqueUsername</text>
</g>
<!-- \\jwvirtualassistant\\AccountManagement\\UniqueUsername&#45;&gt;\\jwvirtualassistant\\AccountManagement\\ValueType -->
<g id="edge4" class="edge">
<title>\\jwvirtualassistant\\AccountManagement\\UniqueUsername&#45;&gt;\\jwvirtualassistant\\AccountManagement\\ValueType</title>
<path fill="none" stroke="#000000" d="M491.3175,-170.1889C473.1278,-174.5359 452.7919,-179.6813 434.3711,-185 371.0463,-203.2839 299.599,-227.7734 251.0135,-245.022"/>
<polygon fill="none" stroke="#000000" points="249.5531,-241.8267 241.3074,-248.4794 251.9021,-248.4208 249.5531,-241.8267"/>
</g>
<!-- \\jwvirtualassistant\\AccountManagement\\AccountNotFoundException -->
<g id="node6" class="node">
<title>\\jwvirtualassistant\\AccountManagement\\AccountNotFoundException</title>
<polygon fill="none" stroke="#000000" points="633.0103,-122 458.1577,-122 458.1577,-86 633.0103,-86 633.0103,-122"/>
<text text-anchor="middle" x="545.584" y="-100.7" font-family="Courier,monospace" font-size="11.00" fill="#000000">AccountNotFoundException</text>
</g>
<!-- \\jwvirtualassistant\\AccountManagement\\AccountNotFoundException&#45;&gt;\\Exception -->
<g id="edge5" class="edge">
<title>\\jwvirtualassistant\\AccountManagement\\AccountNotFoundException&#45;&gt;\\Exception</title>
<path fill="none" stroke="#000000" d="M458.0215,-97.2912C393.3517,-92.3363 307.1419,-85.7311 250.9159,-81.4232"/>
<polygon fill="none" stroke="#000000" points="251.0163,-77.9207 240.7781,-80.6464 250.4815,-84.9002 251.0163,-77.9207"/>
</g>
</g>
</svg>
